<?xml version="1.0" encoding="UTF-8"?><svg xmlns="http://www.w3.org/2000/svg" xmlns:xlink="http://www.w3.org/1999/xlink" fill-opacity="1" color-rendering="auto" color-interpolation="auto" text-rendering="auto" stroke="black" stroke-linecap="square" width="783" stroke-miterlimit="10" shape-rendering="auto" stroke-opacity="1" fill="black" stroke-dasharray="none" font-weight="normal" stroke-width="1" height="435" font-family="'Dialog'" font-style="normal" stroke-linejoin="miter" font-size="12px" stroke-dashoffset="0" image-rendering="auto">
  <!--Generated by ySVG 2.5-->
  <defs id="genericDefs"/>
  <g>
    <defs id="defs1">
      <clipPath clipPathUnits="userSpaceOnUse" id="clipPath1">
        <path d="M0 0 L783 0 L783 435 L0 435 L0 0 Z"/>
      </clipPath>
      <clipPath clipPathUnits="userSpaceOnUse" id="clipPath2">
        <path d="M244 80 L1027 80 L1027 515 L244 515 L244 80 Z"/>
      </clipPath>
    </defs>
    <g fill="white" text-rendering="geometricPrecision" shape-rendering="geometricPrecision" transform="translate(-244,-80)" stroke="white">
      <rect x="244" width="783" height="435" y="80" clip-path="url(#clipPath2)" stroke="none"/>
    </g>
    <g fill="rgb(224,234,255)" text-rendering="geometricPrecision" shape-rendering="geometricPrecision" transform="matrix(1,0,0,1,-244,-80)" stroke="rgb(224,234,255)">
      <rect x="259" width="105" height="71" y="99" clip-path="url(#clipPath2)" stroke="none"/>
    </g>
    <g text-rendering="geometricPrecision" stroke-miterlimit="1.45" shape-rendering="geometricPrecision" font-family="sans-serif" transform="matrix(1,0,0,1,-244,-80)" stroke-linecap="butt">
      <text x="268.1377" xml:space="preserve" y="124.5127" clip-path="url(#clipPath2)" stroke="none">Income</text>
      <text x="268.1377" xml:space="preserve" y="139.2139" clip-path="url(#clipPath2)" stroke="none"> </text>
      <text x="268.1377" xml:space="preserve" y="153.915" clip-path="url(#clipPath2)" stroke="none">Capacity: $1000</text>
      <rect fill="none" x="259" width="105" height="71" y="99" clip-path="url(#clipPath2)"/>
    </g>
    <g fill="rgb(224,234,255)" text-rendering="geometricPrecision" shape-rendering="geometricPrecision" transform="matrix(1,0,0,1,-244,-80)" stroke="rgb(224,234,255)">
      <rect x="290" width="105" height="71" y="227" clip-path="url(#clipPath2)" stroke="none"/>
    </g>
    <g text-rendering="geometricPrecision" stroke-miterlimit="1.45" shape-rendering="geometricPrecision" font-family="sans-serif" transform="matrix(1,0,0,1,-244,-80)" stroke-linecap="butt">
      <text x="300.4766" xml:space="preserve" y="267.2139" clip-path="url(#clipPath2)" stroke="none">Fixed expenses</text>
      <rect fill="none" x="290" width="105" height="71" y="227" clip-path="url(#clipPath2)"/>
    </g>
    <g fill="rgb(224,234,255)" text-rendering="geometricPrecision" shape-rendering="geometricPrecision" transform="matrix(1,0,0,1,-244,-80)" stroke="rgb(224,234,255)">
      <rect x="421" width="105" height="71" y="99" clip-path="url(#clipPath2)" stroke="none"/>
    </g>
    <g text-rendering="geometricPrecision" stroke-miterlimit="1.45" shape-rendering="geometricPrecision" font-family="sans-serif" transform="matrix(1,0,0,1,-244,-80)" stroke-linecap="butt">
      <text x="433.4746" xml:space="preserve" y="131.8633" clip-path="url(#clipPath2)" stroke="none">Savings gate</text>
      <text x="433.4746" xml:space="preserve" y="146.5645" clip-path="url(#clipPath2)" stroke="none">Capacity: $200</text>
      <rect fill="none" x="421" width="105" height="71" y="99" clip-path="url(#clipPath2)"/>
    </g>
    <g fill="rgb(224,234,255)" text-rendering="geometricPrecision" shape-rendering="geometricPrecision" transform="matrix(1,0,0,1,-244,-80)" stroke="rgb(224,234,255)">
      <rect x="452" width="105" height="71" y="227" clip-path="url(#clipPath2)" stroke="none"/>
    </g>
    <g text-rendering="geometricPrecision" stroke-miterlimit="1.45" shape-rendering="geometricPrecision" font-family="sans-serif" transform="matrix(1,0,0,1,-244,-80)" stroke-linecap="butt">
      <text x="460.1445" xml:space="preserve" y="259.8633" clip-path="url(#clipPath2)" stroke="none">Savings</text>
      <text x="460.1445" xml:space="preserve" y="274.5645" clip-path="url(#clipPath2)" stroke="none">Capacity: Infinite</text>
      <rect fill="none" x="452" width="105" height="71" y="227" clip-path="url(#clipPath2)"/>
    </g>
    <g fill="rgb(224,234,255)" text-rendering="geometricPrecision" shape-rendering="geometricPrecision" transform="matrix(1,0,0,1,-244,-80)" stroke="rgb(224,234,255)">
      <rect x="583" width="105" height="71" y="99" clip-path="url(#clipPath2)" stroke="none"/>
    </g>
    <g text-rendering="geometricPrecision" stroke-miterlimit="1.45" shape-rendering="geometricPrecision" font-family="sans-serif" transform="matrix(1,0,0,1,-244,-80)" stroke-linecap="butt">
      <text x="594.4727" xml:space="preserve" y="124.5127" clip-path="url(#clipPath2)" stroke="none">Long-term </text>
      <text x="594.4727" xml:space="preserve" y="139.2139" clip-path="url(#clipPath2)" stroke="none">purchases gate</text>
      <text x="594.4727" xml:space="preserve" y="153.915" clip-path="url(#clipPath2)" stroke="none">Capacity: $50</text>
      <rect fill="none" x="583" width="105" height="71" y="99" clip-path="url(#clipPath2)"/>
    </g>
    <g fill="rgb(224,234,255)" text-rendering="geometricPrecision" shape-rendering="geometricPrecision" transform="matrix(1,0,0,1,-244,-80)" stroke="rgb(224,234,255)">
      <rect x="614" width="105" height="71" y="227" clip-path="url(#clipPath2)" stroke="none"/>
    </g>
    <g text-rendering="geometricPrecision" stroke-miterlimit="1.45" shape-rendering="geometricPrecision" font-family="sans-serif" transform="matrix(1,0,0,1,-244,-80)" stroke-linecap="butt">
      <text x="616.8037" xml:space="preserve" y="259.8633" clip-path="url(#clipPath2)" stroke="none">New mobile phone</text>
      <text x="616.8037" xml:space="preserve" y="274.5645" clip-path="url(#clipPath2)" stroke="none">Capacity: $1000</text>
      <rect fill="none" x="614" width="105" height="71" y="227" clip-path="url(#clipPath2)"/>
    </g>
    <g fill="rgb(224,234,255)" text-rendering="geometricPrecision" shape-rendering="geometricPrecision" transform="matrix(1,0,0,1,-244,-80)" stroke="rgb(224,234,255)">
      <rect x="614" width="105" height="71" y="328" clip-path="url(#clipPath2)" stroke="none"/>
    </g>
    <g text-rendering="geometricPrecision" stroke-miterlimit="1.45" shape-rendering="geometricPrecision" font-family="sans-serif" transform="matrix(1,0,0,1,-244,-80)" stroke-linecap="butt">
      <text x="623.1377" xml:space="preserve" y="360.8633" clip-path="url(#clipPath2)" stroke="none">Laptop upgrade</text>
      <text x="623.1377" xml:space="preserve" y="375.5645" clip-path="url(#clipPath2)" stroke="none">Capacity: $2000</text>
      <rect fill="none" x="614" width="105" height="71" y="328" clip-path="url(#clipPath2)"/>
    </g>
    <g fill="rgb(224,234,255)" text-rendering="geometricPrecision" shape-rendering="geometricPrecision" transform="matrix(1,0,0,1,-244,-80)" stroke="rgb(224,234,255)">
      <rect x="614" width="105" height="71" y="429" clip-path="url(#clipPath2)" stroke="none"/>
    </g>
    <g text-rendering="geometricPrecision" stroke-miterlimit="1.45" shape-rendering="geometricPrecision" font-family="sans-serif" transform="matrix(1,0,0,1,-244,-80)" stroke-linecap="butt">
      <text x="657.8311" xml:space="preserve" y="469.2139" clip-path="url(#clipPath2)" stroke="none">Etc</text>
      <rect fill="none" x="614" width="105" height="71" y="429" clip-path="url(#clipPath2)"/>
    </g>
    <g fill="rgb(224,234,255)" text-rendering="geometricPrecision" shape-rendering="geometricPrecision" transform="matrix(1,0,0,1,-244,-80)" stroke="rgb(224,234,255)">
      <rect x="745" width="105" height="71" y="99" clip-path="url(#clipPath2)" stroke="none"/>
    </g>
    <g text-rendering="geometricPrecision" stroke-miterlimit="1.45" shape-rendering="geometricPrecision" font-family="sans-serif" transform="matrix(1,0,0,1,-244,-80)" stroke-linecap="butt">
      <text x="756.4727" xml:space="preserve" y="124.5127" clip-path="url(#clipPath2)" stroke="none">Short-term </text>
      <text x="756.4727" xml:space="preserve" y="139.2139" clip-path="url(#clipPath2)" stroke="none">purchases gate</text>
      <text x="756.4727" xml:space="preserve" y="153.915" clip-path="url(#clipPath2)" stroke="none">Capacity: $50</text>
      <rect fill="none" x="745" width="105" height="71" y="99" clip-path="url(#clipPath2)"/>
    </g>
    <g fill="rgb(224,234,255)" text-rendering="geometricPrecision" shape-rendering="geometricPrecision" transform="matrix(1,0,0,1,-244,-80)" stroke="rgb(224,234,255)">
      <rect x="776" width="105" height="71" y="227" clip-path="url(#clipPath2)" stroke="none"/>
    </g>
    <g text-rendering="geometricPrecision" stroke-miterlimit="1.45" shape-rendering="geometricPrecision" font-family="sans-serif" transform="matrix(1,0,0,1,-244,-80)" stroke-linecap="butt">
      <text x="791.8115" xml:space="preserve" y="259.8633" clip-path="url(#clipPath2)" stroke="none">New shirt</text>
      <text x="791.8115" xml:space="preserve" y="274.5645" clip-path="url(#clipPath2)" stroke="none">Capacity: $40</text>
      <rect fill="none" x="776" width="105" height="71" y="227" clip-path="url(#clipPath2)"/>
    </g>
    <g fill="rgb(224,234,255)" text-rendering="geometricPrecision" shape-rendering="geometricPrecision" transform="matrix(1,0,0,1,-244,-80)" stroke="rgb(224,234,255)">
      <rect x="776" width="105" height="71" y="328" clip-path="url(#clipPath2)" stroke="none"/>
    </g>
    <g text-rendering="geometricPrecision" stroke-miterlimit="1.45" shape-rendering="geometricPrecision" font-family="sans-serif" transform="matrix(1,0,0,1,-244,-80)" stroke-linecap="butt">
      <text x="791.8115" xml:space="preserve" y="360.8633" clip-path="url(#clipPath2)" stroke="none">Mouse pad</text>
      <text x="791.8115" xml:space="preserve" y="375.5645" clip-path="url(#clipPath2)" stroke="none">Capacity: $20</text>
      <rect fill="none" x="776" width="105" height="71" y="328" clip-path="url(#clipPath2)"/>
    </g>
    <g fill="rgb(224,234,255)" text-rendering="geometricPrecision" shape-rendering="geometricPrecision" transform="matrix(1,0,0,1,-244,-80)" stroke="rgb(224,234,255)">
      <rect x="776" width="105" height="71" y="429" clip-path="url(#clipPath2)" stroke="none"/>
    </g>
    <g text-rendering="geometricPrecision" stroke-miterlimit="1.45" shape-rendering="geometricPrecision" font-family="sans-serif" transform="matrix(1,0,0,1,-244,-80)" stroke-linecap="butt">
      <text x="819.8311" xml:space="preserve" y="469.2139" clip-path="url(#clipPath2)" stroke="none">Etc</text>
      <rect fill="none" x="776" width="105" height="71" y="429" clip-path="url(#clipPath2)"/>
    </g>
    <g fill="rgb(224,234,255)" text-rendering="geometricPrecision" shape-rendering="geometricPrecision" transform="matrix(1,0,0,1,-244,-80)" stroke="rgb(224,234,255)">
      <rect x="907" width="105" height="71" y="99" clip-path="url(#clipPath2)" stroke="none"/>
    </g>
    <g text-rendering="geometricPrecision" stroke-miterlimit="1.45" shape-rendering="geometricPrecision" font-family="sans-serif" transform="matrix(1,0,0,1,-244,-80)" stroke-linecap="butt">
      <text x="915.1445" xml:space="preserve" y="131.8633" clip-path="url(#clipPath2)" stroke="none">Holiday budget</text>
      <text x="915.1445" xml:space="preserve" y="146.5645" clip-path="url(#clipPath2)" stroke="none">Capacity: Infinite</text>
      <rect fill="none" x="907" width="105" height="71" y="99" clip-path="url(#clipPath2)"/>
      <path fill="none" d="M320.0977 170 L332.0193 219.2248" clip-path="url(#clipPath2)"/>
      <path d="M333.9023 227 L335.9373 214.1602 L331.7839 218.2529 L326.2182 216.5141 Z" clip-path="url(#clipPath2)" stroke="none"/>
      <text x="281.8266" xml:space="preserve" y="195.9946" clip-path="url(#clipPath2)" stroke="none">Drain</text>
      <text x="273.8169" xml:space="preserve" y="210.6958" clip-path="url(#clipPath2)" stroke="none">$200/wk</text>
      <path fill="none" d="M364 134.5 L413 134.5" clip-path="url(#clipPath2)"/>
      <path d="M421 134.5 L409 129.5 L412 134.5 L409 139.5 Z" clip-path="url(#clipPath2)" stroke="none"/>
      <text x="369.3281" xml:space="preserve" y="109.2139" clip-path="url(#clipPath2)" stroke="none">Overflow</text>
      <path fill="none" d="M482.0977 170 L494.0193 219.2248" clip-path="url(#clipPath2)"/>
      <path d="M495.9023 227 L497.9373 214.1602 L493.7839 218.2529 L488.2182 216.5141 Z" clip-path="url(#clipPath2)" stroke="none"/>
      <text x="443.8266" xml:space="preserve" y="195.9946" clip-path="url(#clipPath2)" stroke="none">Drain</text>
      <text x="435.8169" xml:space="preserve" y="210.6958" clip-path="url(#clipPath2)" stroke="none">$200/wk</text>
      <path fill="none" d="M526 134.5 L575 134.5" clip-path="url(#clipPath2)"/>
      <path d="M583 134.5 L571 129.5 L574 134.5 L571 139.5 Z" clip-path="url(#clipPath2)" stroke="none"/>
      <text x="531.3281" xml:space="preserve" y="109.2139" clip-path="url(#clipPath2)" stroke="none">Overflow</text>
      <path fill="none" d="M644.0977 170 L656.0193 219.2248" clip-path="url(#clipPath2)"/>
      <path d="M657.9023 227 L659.9373 214.1602 L655.7839 218.2529 L650.2183 216.5141 Z" clip-path="url(#clipPath2)" stroke="none"/>
      <text x="605.8266" xml:space="preserve" y="195.9946" clip-path="url(#clipPath2)" stroke="none">Drain</text>
      <text x="601.1537" xml:space="preserve" y="210.6958" clip-path="url(#clipPath2)" stroke="none">$50/wk</text>
      <path fill="none" d="M666.5 298 L666.5 320" clip-path="url(#clipPath2)"/>
      <path d="M666.5 328 L671.5 316 L666.5 319 L661.5 316 Z" clip-path="url(#clipPath2)" stroke="none"/>
      <text x="612.8281" xml:space="preserve" y="317.7139" clip-path="url(#clipPath2)" stroke="none">Overflow</text>
      <path fill="none" d="M666.5 399 L666.5 421" clip-path="url(#clipPath2)"/>
      <path d="M666.5 429 L671.5 417 L666.5 420 L661.5 417 Z" clip-path="url(#clipPath2)" stroke="none"/>
      <text x="612.8281" xml:space="preserve" y="418.7139" clip-path="url(#clipPath2)" stroke="none">Overflow</text>
      <path fill="none" d="M688 134.5 L737 134.5" clip-path="url(#clipPath2)"/>
      <path d="M745 134.5 L733 129.5 L736 134.5 L733 139.5 Z" clip-path="url(#clipPath2)" stroke="none"/>
      <text x="692.8281" xml:space="preserve" y="109.2139" clip-path="url(#clipPath2)" stroke="none">Overflow</text>
      <path fill="none" d="M806.0977 170 L818.0193 219.2248" clip-path="url(#clipPath2)"/>
      <path d="M819.9023 227 L821.9373 214.1602 L817.7839 218.2529 L812.2183 216.5141 Z" clip-path="url(#clipPath2)" stroke="none"/>
      <text x="767.8266" xml:space="preserve" y="195.9946" clip-path="url(#clipPath2)" stroke="none">Drain</text>
      <text x="763.1537" xml:space="preserve" y="210.6958" clip-path="url(#clipPath2)" stroke="none">$50/wk</text>
      <path fill="none" d="M828.5 298 L828.5 320" clip-path="url(#clipPath2)"/>
      <path d="M828.5 328 L833.5 316 L828.5 319 L823.5 316 Z" clip-path="url(#clipPath2)" stroke="none"/>
      <text x="774.8281" xml:space="preserve" y="317.7139" clip-path="url(#clipPath2)" stroke="none">Overflow</text>
      <path fill="none" d="M828.5 399 L828.5 421" clip-path="url(#clipPath2)"/>
      <path d="M828.5 429 L833.5 417 L828.5 420 L823.5 417 Z" clip-path="url(#clipPath2)" stroke="none"/>
      <text x="774.8281" xml:space="preserve" y="418.7139" clip-path="url(#clipPath2)" stroke="none">Overflow</text>
      <path fill="none" d="M850 134.5 L899 134.5" clip-path="url(#clipPath2)"/>
      <path d="M907 134.5 L895 129.5 L898 134.5 L895 139.5 Z" clip-path="url(#clipPath2)" stroke="none"/>
      <text x="854.8281" xml:space="preserve" y="109.2139" clip-path="url(#clipPath2)" stroke="none">Overflow</text>
    </g>
  </g>
</svg>
